<?xml version="1.0" encoding="utf-8"?>
<svg viewBox="0 0 500 500" xmlns="http://www.w3.org/2000/svg" xmlns:xlink="http://www.w3.org/1999/xlink" xmlns:bx="https://boxy-svg.com">
  <defs>
    <radialGradient id="gradient-1" gradientUnits="userSpaceOnUse" cx="260.897" cy="190.499" r="71.335" gradientTransform="matrix(1.399236, 0.961962, -0.975634, 1.419122, 81.697817, -330.815537)">
      <stop offset="0" style="stop-color: rgb(134, 132, 118);"/>
      <stop offset="1" style="stop-color: rgb(204, 201, 184);"/>
    </radialGradient>
    <radialGradient id="gradient-2" gradientUnits="userSpaceOnUse" cx="284.789" cy="284.33" r="34.568" gradientTransform="matrix(0.95536, 0.295457, -0.325139, 1.051338, 105.159862, -98.739645)">
      <stop offset="0" style="stop-color: rgb(137, 135, 121);"/>
      <stop offset="1" style="stop-color: rgb(176, 174, 158);"/>
    </radialGradient>
    <radialGradient id="gradient-3" gradientUnits="userSpaceOnUse" cx="205.676" cy="325.275" r="35.019" spreadMethod="pad" gradientTransform="matrix(0.999999, 0.016892, -0.016888, 0.999857, 5.493615, -3.427952)">
      <stop offset="0" style="stop-color: rgb(161, 158, 143);"/>
      <stop offset="1" style="stop-color: rgb(172, 169, 154);"/>
    </radialGradient>
    <radialGradient id="gradient-4" gradientUnits="userSpaceOnUse" cx="200.556" cy="264.405" r="22.265" gradientTransform="matrix(1, 0, 0, 0.999999, 0, 0.000332)">
      <stop offset="0" style="stop-color: rgb(138, 135, 121);"/>
      <stop offset="1" style="stop-color: rgb(148, 146, 135);"/>
    </radialGradient>
    <radialGradient id="gradient-5" gradientUnits="userSpaceOnUse" cx="129.681" cy="268.132" r="8.178" gradientTransform="matrix(0.999994, 0, 0, 1, 0.000756, 0)">
      <stop offset="0" style="stop-color: rgb(139, 136, 122);"/>
      <stop offset="1" style="stop-color: rgb(144, 143, 135);"/>
    </radialGradient>
    <linearGradient id="gradient-8" gradientUnits="userSpaceOnUse" x1="349.715" y1="46.43" x2="349.715" y2="231.76" gradientTransform="matrix(1, 0, 0, 1, 0.000029, -0.000004)">
      <stop offset="0" style="stop-color: rgb(228, 225, 207);"/>
      <stop offset="1" style="stop-color: rgb(199, 196, 175);"/>
    </linearGradient>
    <pattern id="pattern-1" x="0" y="0" width="20" height="20" patternUnits="userSpaceOnUse" viewBox="0 0 100 100">
      <path d="M 0 0 L 50 0 L 50 100 L 0 100 Z" style="fill: black;"/>
    </pattern>
    <radialGradient id="gradient-6" gradientUnits="userSpaceOnUse" cx="260.897" cy="190.499" r="71.335" gradientTransform="matrix(1.399238, 0.961962, -0.975634, 1.419122, 81.697401, -330.815496)">
      <stop offset="0" style="stop-color: rgb(134, 132, 118);"/>
      <stop offset="1" style="stop-color: rgb(204, 201, 184);"/>
    </radialGradient>
  </defs>
  <g>
    
    <path d="M 349.484 42.595 C 293.239 3.692 242.149 -0.995 196.215 28.534 C 174.33 42.603 156.05 61.117 141.376 84.076 C 136.049 92.409 136.19 108.413 133.461 113.197 C 131.002 117.506 128.252 122.419 120.987 127.666 C 111.601 134.446 99.955 137.045 93.455 147.76 C 91.952 150.238 94.335 155.456 96.97 159.1 C 100.638 164.172 105.635 166.305 103.411 177.584 C 102.341 183.011 105.622 187.463 113.253 190.942 C 118.887 193.51 121.934 198.9 122.393 207.113 C 122.877 215.77 122.877 224.441 122.393 233.126 C 121.891 242.128 117.673 250.096 109.738 257.031 C 106.557 259.811 104.286 264.3 103.591 268.756 C 102.664 274.7 106.588 279.092 116.247 282.817 C 123.366 285.563 127.775 289.623 130.83 298.512 C 132.623 303.729 128.534 309.331 127.315 316.156 C 125.124 328.423 120.923 358.573 123.096 362.559 C 128.021 371.595 127.476 375.68 127.905 385.035 C 128.194 391.338 129.245 399.495 132.236 405.378 C 133.613 408.087 134.16 449.729 135.841 456.582 C 137.601 463.758 138.052 482.817 152.965 498.41 C 158.63 504.334 169.411 488.973 178.639 469.357 C 200.448 422.997 224.194 376.913 261.601 355.46 C 269.076 351.173 274.801 344.494 279.88 337.18 C 282.869 332.876 292.89 330.805 298.364 327.497 C 317.254 316.083 335.71 316.65 341.818 295.02 C 343.577 288.79 343.892 286.892 342.453 278.123 C 341.97 275.18 343.647 273.175 348.781 271.795 C 353.76 270.457 352.581 265.596 352.024 258.981 C 351.684 254.95 347.521 248.806 350.89 244.375 C 355.458 238.368 357.682 228.348 364.248 224.622 C 374.013 219.08 377.072 212.982 378.945 205.843 C 380.017 201.757 386.468 200.211 391.192 197.202 C 398.065 192.824 406.327 180.158 402.396 173.185 C 397.105 163.799 400.048 155.421 400.105 145.946 C 400.519 76.978 385.051 72.76 349.484 42.595 Z" style="stroke: rgb(146, 146, 146); fill: rgb(236, 234, 226);" bx:origin="0.5 0.5" stroke-width="3"/>
    <path d="M 207.746 287.709 C 200.519 283.513 192.826 290.507 184.667 308.69 C 179.626 319.923 176.363 329.247 174.876 336.664 C 170.657 357.711 176.019 367.036 190.961 364.639 C 200.02 363.186 208.18 358.989 215.439 352.05 C 219.651 348.023 221.585 341.157 225.23 334.566 C 240.695 306.599 228.564 286.176 207.746 287.709 Z" style="stroke: none; fill: url(#gradient-3);" bx:origin="0.5 0.5" />
    <path d="M 180.471 256.937 C 189.224 254.154 197.018 248.509 195.857 247.846 C 195.857 247.846 222.82 260.504 220.843 270.734 C 218.866 280.964 194.194 279.403 186.724 275.989 C 186.724 275.989 178.291 264.174 180.471 256.937 Z" style="stroke: none; fill: url(#gradient-4);" bx:origin="0.5 0.5"/>
    <path d="M 366.5 63.215 C 366.5 63.215 391.677 98.183 385.383 144.34 C 379.089 190.497 342.722 224.067 342.722 224.067 C 342.722 224.067 334.33 231.76 337.827 187.701 C 341.324 143.642 345.52 143.641 326.637 114.967 C 307.754 86.293 356.01 46.43 366.5 63.215 Z" style="stroke: none; fill: url(#gradient-8);" bx:origin="0.5 0.5"/>
    <path d="M 126.62 252.741 C 129.22 250.551 137.247 259.027 137.703 267.571 C 137.859 270.496 137.466 277.476 135.203 279.079 C 125.159 286.193 122.196 263.68 122.424 270.225 C 121.503 267.463 125.73 250.071 126.62 252.741 Z" style="stroke: none; fill: url(#gradient-5);" bx:origin="0.5 0.5"/>
    <path d="M 252.867 305.901 C 251.842 306.67 250.221 297.997 251.848 294.188 C 258.416 285.166 262.931 281.617 265.939 282.984 C 265.939 283.175 288.687 277.625 288.687 276.193 C 291.661 275.992 306.435 265.07 304.474 265.328 C 304.423 264.968 317.021 261.989 317.377 264.479 C 319.357 270.591 314.377 273.193 313.642 278.06 C 311.359 293.173 298.683 299.567 272.899 296.564 C 267.489 295.934 265.282 297.858 259.827 299.281 C 257.009 300.016 254.745 301.204 252.867 305.901 Z" style="stroke: none; fill: url(#gradient-2);" bx:origin="0.5 0.5"/>
    <path d="M 198.654 218.473 C 198.654 218.473 189.562 204.485 207.046 180.707 C 224.53 156.929 232.923 151.334 232.923 151.334 L 256.002 128.955 C 256.002 128.955 290.27 113.569 301.46 120.562 C 312.65 127.555 332.232 134.549 327.336 173.014 C 322.44 211.479 325.938 212.878 325.938 212.878 C 325.938 212.878 324.539 240.153 302.859 247.846 C 281.179 255.539 290.27 267.428 257.4 258.336 C 224.53 249.244 227.328 245.748 212.641 238.754 C 197.954 231.76 200.053 219.172 198.654 218.473 Z" style="stroke: none; fill: url(#gradient-1);" bx:origin="0.5 0.5"/>
  </g>
  <path style="stroke: black; fill: none;"/>
</svg>