<?xml version="1.0" encoding="utf-8"?>
<svg viewBox="0 0 54 87" xmlns="http://www.w3.org/2000/svg" xmlns:bx="https://boxy-svg.com">
  <path d="M 25.482 -80.726 Q 27.227 -83.973 28.971 -80.726 L 40.524 -59.232 Q 42.269 -55.985 38.779 -55.985 L 15.674 -55.985 Q 12.184 -55.985 13.929 -59.232 Z" style="fill: rgb(255, 85, 85);" transform="matrix(1, 0, 0, -1, 0, 0)" bx:shape="triangle 12.184 -83.973 30.085 27.988 0.5 0.116 1@2ee0c919"/>
  <ellipse style="fill: rgb(226, 181, 181);" cx="56.699" cy="154.055" rx="13.92" ry="5.055" transform="matrix(1, 0, 0, 0.999998, -29.492216, -96.984492)"/>
  <path d="M 26.576 -53.68 Q 27.73 -60.108 28.883 -53.68 L 36.523 -11.124 Q 37.677 -4.696 35.369 -4.696 L 20.09 -4.696 Q 17.782 -4.696 18.936 -11.124 Z" style="fill: rgb(255, 85, 85);" transform="matrix(1, 0, 0, -1, 0, 0)" bx:shape="triangle 17.782 -60.108 19.895 55.412 0.5 0.116 1@a5e26aa4"/>
  <ellipse style="fill: rgb(226, 181, 181);" cx="37.158" cy="174.113" rx="8.868" ry="3.223" transform="matrix(1, 0, 0, 1.000002, -9.475848, -168.157725)"/>
</svg>