<?xml version="1.0" encoding="utf-8"?>
<svg viewBox="0 0 54 87" xmlns="http://www.w3.org/2000/svg" xmlns:bx="https://boxy-svg.com">
  <path d="M 25.48 -80.726 Q 27.227 -83.973 28.973 -80.726 L 40.538 -59.232 Q 42.285 -55.985 38.791 -55.985 L 15.662 -55.985 Q 12.168 -55.985 13.915 -59.232 Z" style="fill: rgb(255, 244, 85);" transform="matrix(1, 0, 0, -1, 0, 0)" bx:shape="triangle 12.168 -83.973 30.117 27.988 0.5 0.116 1@d2d12a74"/>
  <ellipse style="fill: rgb(226, 200, 181);" cx="56.758" cy="154.055" rx="13.935" ry="5.055" transform="matrix(1, 0, 0, 0.999998, -29.551477, -96.984492)"/>
  <path d="M 26.575 -53.68 Q 27.73 -60.108 28.885 -53.68 L 36.533 -11.124 Q 37.688 -4.696 35.378 -4.696 L 20.082 -4.696 Q 17.772 -4.696 18.927 -11.124 Z" style="fill: rgb(255, 244, 85);" transform="matrix(1, 0, 0, -1, 0, 0)" bx:shape="triangle 17.772 -60.108 19.916 55.412 0.5 0.116 1@444ad685"/>
  <ellipse style="fill: rgb(226, 200, 181);" cx="37.197" cy="174.113" rx="8.878" ry="3.223" transform="matrix(1, 0, 0, 1.000002, -9.514215, -168.157725)"/>
</svg>