<?xml version="1.0" encoding="utf-8"?>
<svg id="resp-icon" viewBox="50 30 427 428" xmlns="http://www.w3.org/2000/svg" xmlns:bx="https://boxy-svg.com">
  <defs>
    <style>
                @media all and (max-width: 800px) {
                    #between-ellipse {
                        display: none;
                    }
                }
                
                @media all and (max-width: 600px) {
                    #outer-ellipse {
                        display: none;
                    }
                }
                
                @media all and (max-width: 400px) {
                    #main-ellipse {
                        display: none;
                    }
                }
                #resp-icon:hover #outer-pols{transform-origin:50% 38%;transform:rotate(360deg);transition:transform 1s cubic-bezier(.23, -0.37, .58, 1.32);}
            </style>
  </defs>
  <ellipse id="main-ellipse" cx="263.263" cy="243.43" rx="196.692" ry="196.692" style="fill: rgb(227, 226, 221);"/>
  <g id="outer-pols">
    <path d="M371.16 136.404q2.663-1.537 5.326 0l32.714 18.888q2.663 1.538 2.663 4.612v37.776q0 3.075-2.663 4.612l-32.714 18.888q-2.663 1.537-5.326 0l-32.714-18.888q-2.663-1.537-2.663-4.612v-37.776q0-3.074 2.663-4.612z" style="fill: rgb(255, 85, 85);"/>
    <path d="M149.042 136.404q2.663-1.537 5.326 0l32.714 18.888q2.663 1.538 2.663 4.612v37.776q0 3.075-2.663 4.612l-32.714 18.888q-2.663 1.537-5.326 0l-32.714-18.888q-2.663-1.537-2.663-4.612v-37.776q0-3.074 2.663-4.612z" style="fill: rgb(255, 85, 85);"/>
    <path d="M260.172 326.668q2.663-1.537 5.326 0l32.714 18.888q2.663 1.538 2.663 4.612v37.776q0 3.074-2.663 4.612l-32.714 18.888q-2.663 1.537-5.326 0l-32.714-18.888q-2.663-1.537-2.663-4.612v-37.776q0-3.074 2.663-4.612z" style="fill: rgb(255, 85, 85);"/>
  </g>
  <ellipse id="outer-ellipse" cx="263.263" cy="243.43" rx="209.214" ry="209.214" style="fill: none; stroke-width: 6; stroke: rgb(227, 226, 221);"/>
  <ellipse id="between-ellipse" cx="263.263" cy="243.43" rx="201.072" ry="201.072" style="fill: none; stroke-width: 3; stroke: rgb(227, 226, 221);"/>
  <g id="inner-pols"/>
  <path d="M 186.89 207.042 C 190.065 205.209 193.241 205.209 196.416 207.042 L 254.926 240.822 C 258.102 242.655 259.69 245.405 259.69 249.072 L 259.69 316.636 C 259.69 320.303 258.102 323.053 254.927 324.886 L 196.417 358.666 C 193.241 360.499 190.065 360.499 186.89 358.666 L 128.38 324.886 C 125.204 323.053 123.616 320.303 123.616 316.636 L 123.616 249.072 C 123.616 245.405 125.204 242.655 128.379 240.822 Z" style="fill: rgb(68, 68, 68);" bx:origin="0.5 0.5"/>
  <path d="M 327.825 207.042 C 331 205.209 334.176 205.209 337.351 207.042 L 395.863 240.822 C 399.038 242.655 400.626 245.405 400.626 249.072 L 400.626 316.636 C 400.626 320.303 399.038 323.053 395.863 324.886 L 337.353 358.666 C 334.177 360.499 331.001 360.499 327.826 358.666 L 269.316 324.886 C 266.14 323.053 264.552 320.303 264.552 316.636 L 264.552 249.072 C 264.552 245.405 266.14 242.655 269.316 240.822 Z" style="fill: rgb(68, 68, 68);" bx:origin="0.5 0.5"/>
  <ellipse id="inner-ellipse" cx="262.427" cy="242.144" rx="57.851" ry="57.851" style="fill: rgb(227, 226, 221);"/>
  <path d="M 258.072 85.627 C 261.247 83.794 264.423 83.794 267.598 85.627 L 326.108 119.407 C 329.284 121.24 330.872 123.99 330.872 127.657 L 330.872 195.221 C 330.872 198.888 329.284 201.638 326.109 203.471 L 267.597 237.251 C 264.422 239.084 261.246 239.084 258.071 237.251 L 199.561 203.471 C 196.385 201.638 194.797 198.888 194.797 195.221 L 194.797 127.658 C 194.797 123.991 196.385 121.241 199.56 119.408 Z" style="fill: rgb(68, 68, 68);" bx:origin="0.5 0.5"/>
</svg>